HIERARCHY
ROOT Hips
{
	OFFSET 0.00000 0.00000 0.00000
	CHANNELS 6 Xposition Yposition Zposition Zrotation Yrotation Xrotation 
	JOINT LHipJoint
	{
		OFFSET 0 0 0
		CHANNELS 3 Zrotation Yrotation Xrotation
		JOINT LeftUpLeg
		{
			OFFSET 1.30186 -1.90722 0.65024
			CHANNELS 3 Zrotation Yrotation Xrotation
			JOINT LeftLeg
			{
				OFFSET 2.56413 -7.04489 0.00000
				CHANNELS 3 Zrotation Yrotation Xrotation
				JOINT LeftFoot
				{
					OFFSET 2.79321 -7.67428 0.00000
					CHANNELS 3 Zrotation Yrotation Xrotation
					JOINT LeftToeBase
					{
						OFFSET 0.15723 -0.43198 2.08537
						CHANNELS 3 Zrotation Yrotation Xrotation
						End Site
						{
							OFFSET 0.00000 -0.00000 1.07411
						}
					}
				}
			}
		}
	}
	JOINT RHipJoint
	{
		OFFSET 0 0 0
		CHANNELS 3 Zrotation Yrotation Xrotation
		JOINT RightUpLeg
		{
			OFFSET -1.28627 -1.90723 0.65024
			CHANNELS 3 Zrotation Yrotation Xrotation
			JOINT RightLeg
			{
				OFFSET -2.56567 -7.04913 0.00000
				CHANNELS 3 Zrotation Yrotation Xrotation
				JOINT RightFoot
				{
					OFFSET -2.75597 -7.57198 0.00000
					CHANNELS 3 Zrotation Yrotation Xrotation
					JOINT RightToeBase
					{
						OFFSET -0.17500 -0.48081 2.22901
						CHANNELS 3 Zrotation Yrotation Xrotation
						End Site
						{
							OFFSET -0.00000 -0.00000 1.14762
						}
					}
				}
			}
		}
	}
	JOINT LowerBack
	{
		OFFSET 0 0 0
		CHANNELS 3 Zrotation Yrotation Xrotation
		JOINT Spine
		{
			OFFSET -0.04522 2.07467 -0.16566
			CHANNELS 3 Zrotation Yrotation Xrotation
			JOINT Spine1
			{
				OFFSET -0.01178 2.08825 -0.05393
				CHANNELS 3 Zrotation Yrotation Xrotation
				JOINT Neck
				{
					OFFSET 0 0 0
					CHANNELS 3 Zrotation Yrotation Xrotation
					JOINT Neck1
					{
						OFFSET -0.05182 1.80489 0.16014
						CHANNELS 3 Zrotation Yrotation Xrotation
						JOINT Head
						{
							OFFSET 0.14739 1.78840 -0.33342
							CHANNELS 3 Zrotation Yrotation Xrotation
							End Site
							{
								OFFSET 0.04364 1.83899 -0.13460
							}
						}
					}
				}
				JOINT LeftShoulder
				{
					OFFSET 0 0 0
					CHANNELS 3 Zrotation Yrotation Xrotation
					JOINT LeftArm
					{
						OFFSET 3.01264 1.29090 -0.06579
						CHANNELS 3 Zrotation Yrotation Xrotation
						JOINT LeftForeArm
						{
							OFFSET 5.55680 -0.00000 0.00000
							CHANNELS 3 Zrotation Yrotation Xrotation
							JOINT LeftHand
							{
								OFFSET 3.63979 -0.00000 -0.00000
								CHANNELS 3 Zrotation Yrotation Xrotation
								JOINT LeftFingerBase
								{
									OFFSET 0 0 0
									CHANNELS 3 Zrotation Yrotation Xrotation
									JOINT LeftHandIndex1
									{
										OFFSET 0.56942 -0.00000 -0.00000
										CHANNELS 3 Zrotation Yrotation Xrotation
										End Site
										{
											OFFSET 0.45908 -0.00000 -0.00000
										}
									}
								}
								JOINT LThumb
								{
									OFFSET 0 0 0
									CHANNELS 3 Zrotation Yrotation Xrotation
									End Site
									{
										OFFSET 0.46609 -0.00000 0.46609
									}
								}
							}
						}
					}
				}
				JOINT RightShoulder
				{
					OFFSET 0 0 0
					CHANNELS 3 Zrotation Yrotation Xrotation
					JOINT RightArm
					{
						OFFSET -3.15796 1.37283 -0.36748
						CHANNELS 3 Zrotation Yrotation Xrotation
						JOINT RightForeArm
						{
							OFFSET -5.34339 -0.00000 0.00000
							CHANNELS 3 Zrotation Yrotation Xrotation
							JOINT RightHand
							{
								OFFSET -3.65101 -0.00000 -0.00000
								CHANNELS 3 Zrotation Yrotation Xrotation
								JOINT RightFingerBase
								{
									OFFSET 0 0 0
									CHANNELS 3 Zrotation Yrotation Xrotation
									JOINT RightHandIndex1
									{
										OFFSET -0.69425 -0.00000 -0.00000
										CHANNELS 3 Zrotation Yrotation Xrotation
										End Site
										{
											OFFSET -0.55972 -0.00000 -0.00000
										}
									}
								}
								JOINT RThumb
								{
									OFFSET 0 0 0
									CHANNELS 3 Zrotation Yrotation Xrotation
									End Site
									{
										OFFSET -0.56827 -0.00000 0.56827
									}
								}
							}
						}
					}
				}
			}
		}
	}
}
MOTION
Frames: 15
Frame Time: 0.133333
0.00 0.00 0.00 0 0 0 0 0 0 -21 0 0 0 0 0 0 0 0 0 0 0 0 0 0 21 0 0 0 0 0 0 0 0 0 0 0 0 0 0 0 0 0 0 0 0 0 0 -16 0 0 21 0 0 11 0 0 0 -8 0 0 0 0 0 0 0 0 0 0 0 0 0 0 0 0 0 0 0 0 8 0 0 0 0 0 0 0 0 0 0 0 0 0 0 0 0 0
0.00 0.00 0.00 11.9709 79.8916 15.6495 0.0000 0.0000 0.0000 -17.9188 -7.0664 -6.8633 1.3977 7.4791 21.1427 0.2075 -12.1851 -11.1422 0.0912 -1.9480 -5.3621 0.0000 0.0000 0.0000 12.1235 15.5180 -3.4777 -1.6906 -8.1894 23.2909 -0.3342 -13.9517 -23.2285 -0.6463 -5.1430 14.3169 -6.4458 -0.8343 -2.9005 -1.7402 -0.8296 0.0435 1.7819 -0.4482 1.7413 -12.6205 -13.6373 -1.6609 7.5321 -19.3031 29.3971 2.5794 -9.1718 11.9524 -0.0000 -0.0000 0.0000 -87.6979 5.3569 6.3419 14.4554 -23.3819 -3.0065 -0.0000 0.0000 -1.3116 26.2538 18.2454 8.7785 -7.1250 0.0000 -0.0000 -1.8372 50.1533 -0.2334 -0.0000 -0.0000 0.0000 73.4795 -5.4532 30.5887 -15.4136 24.7192 -3.3970 0.0000 0.0000 5.3929 -5.4308 33.2526 -2.9841 7.1250 -0.0000 -0.0000 14.8534 2.4179 16.0054
0.00 0.00 0.00 -10.0554 82.0768 -8.1317 0.0000 0.0000 0.0000 -15.2038 -6.9090 -14.2637 3.9230 12.0573 35.9348 1.3739 -9.7097 -21.0631 1.4205 -7.5372 -21.3169 0.0000 0.0000 0.0000 14.8789 13.7916 -0.7401 -1.5212 -7.7881 22.0724 -0.6281 -12.6681 -24.4045 -0.6487 -5.1521 14.3430 0.6736 0.3802 0.7770 -0.5432 0.5243 1.7366 -0.9312 0.2801 1.3534 -10.6086 -10.4484 -1.4600 1.2527 -12.6358 35.0272 0.9390 -6.3908 12.7638 0.0000 -0.0000 0.0000 -87.3637 2.9547 10.7484 17.4249 -27.4145 -4.2811 -0.0000 -0.0000 2.7963 20.4769 15.5093 5.7022 -7.1250 0.0000 -0.0000 -6.7944 46.3670 -0.2303 0.0000 -0.0000 0.0000 56.0240 -5.7452 47.4008 -18.7932 29.1609 -4.9297 0.0000 -0.0000 -7.1581 19.0642 22.9197 7.6650 7.1250 -0.0000 -0.0000 28.6525 -7.8161 28.4233
0.00 0.00 0.00 18.3911 78.8573 19.8250 0.0000 0.0000 0.0000 -20.8676 0.2443 -19.0882 3.2623 11.1080 32.6451 0.7109 -4.9124 -15.0273 0.2249 -3.0527 -8.4255 0.0000 0.0000 0.0000 3.7411 3.1745 -11.9249 -3.1053 -10.8636 31.8213 -0.9219 2.9186 -17.3972 -0.3474 -3.7873 10.4789 6.8586 0.5007 5.1283 0.5784 0.9952 5.2055 -3.2667 0.7643 2.6297 -8.0040 -6.2170 -3.5030 -15.1348 0.0496 37.0804 -4.4801 -1.9990 13.3710 -0.0000 -0.0000 0.0000 -77.6368 7.6772 10.4835 22.2793 -33.2912 -6.7385 -0.0000 -0.0000 5.6418 16.8831 12.3620 3.7176 -7.1250 0.0000 -0.0000 -9.3632 42.6880 0.5393 -0.0000 -0.0000 0.0000 27.3448 -2.2481 30.6073 -30.5329 41.3458 -11.7601 0.0000 -0.0000 -25.4579 3.6058 21.5658 1.3269 7.1250 -0.0000 -0.0000 20.1957 -9.3634 17.8163
0.00 0.00 0.00 26.4174 73.9291 27.5870 0.0000 0.0000 0.0000 -25.0813 0.1720 -18.6063 3.1294 10.9017 31.9490 0.8439 -1.9153 -16.8159 0.0005 -0.1386 -0.3807 0.0000 0.0000 0.0000 -5.2441 -1.3556 -24.8099 -6.2675 -14.6827 46.0462 0.6736 16.4757 -2.5803 -0.2568 3.2606 -9.0051 7.3890 0.4158 8.9211 1.0585 1.2572 6.4763 -3.1265 0.9476 1.8946 -7.6240 -5.5075 -4.3436 -19.3600 1.8087 33.5760 -5.8150 -1.4469 12.2240 -0.0000 -0.0000 0.0000 -71.9897 9.1621 2.4152 18.1988 -28.4110 -4.6435 -0.0000 -0.0000 7.6417 11.2674 13.2706 2.6185 -7.1250 0.0000 -0.0000 -14.5514 43.0223 0.7267 -0.0000 -0.0000 0.0000 21.2088 0.6433 25.5011 -33.8021 43.9376 -13.9756 0.0000 -0.0000 -33.6403 -7.2982 22.5126 -2.8073 7.1250 -0.0000 -0.0000 13.5207 -7.8074 11.9038
0.00 0.00 0.00 42.4322 78.5886 47.2819 0.0000 0.0000 0.0000 -18.2882 1.1528 -23.1476 3.3859 11.2950 33.2814 0.2122 -9.5257 -9.9026 0.0035 0.3830 1.0523 0.0000 0.0000 0.0000 -9.7498 9.7765 -9.1666 -1.5160 -7.7753 22.0336 -0.0965 -23.2485 -33.3374 -2.8191 -10.3962 30.2696 8.4129 0.0074 7.6456 4.0593 0.7481 5.3107 -0.5431 0.6331 1.2943 -11.9604 -8.1533 -2.8284 -12.9733 -3.1901 35.9663 -3.1995 -3.5867 12.8258 0.0000 -0.0000 0.0000 -51.2739 15.8801 -10.4658 20.5129 -31.2554 -5.7951 -0.0000 0.0000 -12.4857 28.0871 24.2832 12.3783 -7.1250 0.0000 -0.0000 -1.4455 57.0586 -0.4271 0.0000 -0.0000 0.0000 26.7306 -1.5637 33.2652 -30.0193 40.9100 -11.4223 0.0000 -0.0000 -31.0341 -7.0998 22.8401 -2.7679 7.1250 -0.0000 -0.0000 13.6433 -7.5057 12.1015
0.00 0.00 0.00 7.8282 63.5879 17.2520 0.0000 0.0000 0.0000 -27.2905 -7.7137 -39.1445 2.9508 10.6149 30.9919 -0.1029 -10.4571 -5.5495 0.1883 -2.7946 -7.7074 0.0000 0.0000 0.0000 11.5351 -7.1484 -32.5784 -7.8206 -15.9857 51.9140 -0.2271 10.4950 -10.5374 -0.0335 1.1809 -3.2466 4.9013 2.8661 14.6073 0.0436 4.7057 9.7512 -3.2420 2.7616 2.5669 -11.0358 -9.1132 -3.0101 -3.8479 -9.1222 28.6577 -0.3259 -5.3374 10.0685 -0.0000 0.0000 0.0000 -66.3850 14.2421 -11.2158 22.4290 -33.4585 -6.8209 -0.0000 0.0000 -4.3300 25.5260 13.6741 6.4407 -7.1250 0.0000 -0.0000 -1.7520 45.0613 -0.0026 -0.0000 0.0000 0.0000 23.2473 -2.0742 40.8116 -21.0941 31.9380 -6.0996 0.0000 -0.0000 -18.7493 4.5095 15.9284 1.2399 7.1250 -0.0000 -0.0000 21.2571 -14.6711 16.3678
0.00 0.00 0.00 6.7527 60.5727 14.0879 0.0000 0.0000 0.0000 -25.4240 -12.1957 -35.4841 2.6949 10.1839 29.5744 -0.0125 -3.0509 3.5786 0.8784 5.9749 16.7116 0.0000 0.0000 0.0000 8.0503 -9.8051 -35.2686 -10.3593 -17.6070 60.6826 0.9800 17.2054 6.5175 -0.0263 1.0478 -2.8805 3.3390 3.5574 13.7307 -0.1585 5.3807 9.5853 -2.6000 3.0177 2.7758 -13.0788 -8.6017 -4.7213 -3.7874 -7.5394 32.1601 0.0055 -4.8970 11.8642 0.0000 -0.0000 0.0000 -66.4856 14.1813 -10.5982 22.2807 -33.2928 -6.7393 -0.0000 0.0000 -1.3533 22.7494 13.3792 5.5420 -7.1250 0.0000 -0.0000 -4.2687 44.4000 0.0633 0.0000 -0.0000 0.0000 23.3905 1.7464 40.5067 -19.8108 30.4137 -5.4352 0.0000 -0.0000 -17.9928 1.8631 15.7095 0.5046 7.1250 -0.0000 -0.0000 19.6075 -14.8329 14.8452
0.00 0.00 0.00 5.5201 63.1583 7.2675 0.0000 0.0000 0.0000 -14.9102 -12.3945 -30.0498 6.7851 15.1483 48.0569 0.1585 -11.1483 -9.9992 0.0568 -1.5385 -4.2320 0.0000 0.0000 0.0000 -4.1302 3.4756 -21.7411 -2.6726 -10.1452 29.4483 0.5028 -14.9654 -14.4200 -0.0114 0.6908 -1.8983 3.5658 2.3426 14.2352 0.7669 3.7948 7.5680 -1.7166 2.1008 0.1922 -11.5802 -9.8044 -4.7226 -4.0878 -9.2385 35.7264 -0.6958 -5.5739 13.3213 0.0000 0.0000 0.0000 -65.7394 7.9738 0.6705 25.3342 -36.5436 -8.4881 -0.0000 0.0000 -0.7025 22.9918 7.6425 3.2297 -7.1250 0.0000 -0.0000 -3.2947 38.2540 0.5480 0.0000 0.0000 0.0000 35.5600 8.9107 28.6782 -15.7422 25.1698 -3.5356 0.0000 -0.0000 -7.2731 -21.2827 33.8400 -12.2391 7.1250 -0.0000 -0.0000 6.1748 5.5711 6.7829
0.00 0.00 0.00 1.0554 62.6709 0.7457 0.0000 0.0000 0.0000 -9.4599 -12.4344 -34.5967 11.2721 18.0657 63.6620 0.2814 -3.2563 -9.4292 0.0701 -1.7084 -4.7005 0.0000 0.0000 0.0000 0.5698 -2.3624 -27.3420 -5.4022 -13.8229 42.5324 -0.0521 -7.8176 -12.1800 -0.0837 1.8666 -5.1372 5.8563 1.9747 16.5536 0.9466 3.7779 7.5798 -2.9323 2.1352 -0.8633 -12.2621 -9.8981 -1.5148 -0.0222 -11.5301 28.3983 0.9838 -6.2737 10.1048 0.0000 -0.0000 0.0000 -64.9845 9.4523 0.0753 25.2370 -36.4452 -8.4303 -0.0000 0.0000 -6.3574 28.8800 10.2428 5.6017 -7.1250 0.0000 -0.0000 1.6562 41.6342 -0.1376 0.0000 -0.0000 0.0000 38.8833 8.5090 24.8444 -14.5459 23.5098 -3.0425 0.0000 -0.0000 -0.3570 -14.2135 30.5899 -7.3447 7.1250 -0.0000 -0.0000 9.7550 0.9967 10.0694
0.00 0.00 0.00 -3.7650 43.5828 -4.5071 0.0000 0.0000 0.0000 -27.7139 2.8983 -49.3630 7.6354 15.8444 51.2384 0.7252 -3.5355 -15.2794 0.0536 -1.4945 -4.1106 0.0000 0.0000 0.0000 13.6700 -5.8700 -29.3634 -8.9922 -16.8027 56.0630 -1.0432 10.9054 -18.6554 -0.0187 -0.8830 2.4269 4.8618 5.0209 16.7162 0.4744 7.5271 7.7202 -3.4377 3.9679 -0.5025 -11.2252 -9.7328 -3.9453 -0.5905 -11.5049 22.3330 0.6427 -6.2588 8.2630 -0.0000 0.0000 0.0000 -72.2761 18.4587 -14.7336 12.8069 -21.0036 -2.3836 -0.0000 -0.0000 13.1765 4.4404 17.4194 1.3317 -7.1250 0.0000 -0.0000 -22.0164 46.2002 -0.6851 -0.0000 0.0000 0.0000 30.0972 -4.4102 46.4676 -11.0874 18.4220 -1.8034 0.0000 -0.0000 -15.0236 -21.3904 16.8503 -6.4778 7.1250 -0.0000 -0.0000 4.2794 -11.9993 3.3056
0.00 0.00 0.00 -2.9364 33.9412 -6.7789 0.0000 0.0000 0.0000 -20.2923 -7.0148 -39.3453 5.6795 14.1104 43.6816 -0.0104 2.5193 -2.7809 2.3658 9.5897 27.6579 0.0000 0.0000 0.0000 5.5978 -11.4160 -37.2207 -14.5400 -19.2697 73.8469 2.1867 25.3001 13.5460 -0.7061 5.3709 -14.9694 3.6659 6.0872 18.0722 -1.1265 8.7232 7.9468 -4.7737 4.5632 -0.7619 -10.1109 -9.8083 -6.5591 1.1856 -12.0367 19.3969 0.9254 -6.2869 7.7804 0.0000 0.0000 0.0000 -66.7758 23.6240 -17.0621 13.5262 -22.0534 -2.6476 -0.0000 -0.0000 6.7734 1.1521 20.0388 0.3948 -7.1250 0.0000 -0.0000 -26.1313 48.1529 -2.1718 0.0000 0.0000 0.0000 23.8044 0.0025 58.8579 -12.2081 20.1160 -2.1733 0.0000 -0.0000 -37.5521 -40.1683 -7.0639 5.9265 7.1250 -0.0000 -0.0000 -11.5986 -38.9393 -1.7597
0.00 0.00 0.00 -6.6936 38.9663 -9.3540 0.0000 0.0000 0.0000 -9.2843 -13.1865 -41.7177 10.6337 17.7511 61.5863 0.4095 -5.1135 -11.4183 0.0895 1.9298 5.3118 0.0000 0.0000 0.0000 -6.1330 -0.0127 -24.0562 -4.4813 -12.7747 38.5307 0.2794 -13.6708 -15.6650 -0.5085 -4.5712 12.6894 0.9037 4.5571 17.4847 0.8321 6.3490 8.3752 -0.7537 3.2724 -0.7983 -17.3679 -17.3511 2.5176 16.4565 -24.4452 4.5532 5.9487 -12.2022 5.1281 -0.0000 0.0000 0.0000 -58.7385 19.7391 -13.3256 18.9734 -29.3856 -5.0178 -0.0000 0.0000 -8.5082 32.7917 22.1529 13.6546 -7.1250 0.0000 -0.0000 4.3008 55.7698 1.1381 -0.0000 0.0000 0.0000 34.1652 7.9180 21.0437 -6.9951 11.9111 -0.7306 0.0000 0.0000 29.9721 -29.9502 15.7313 -8.8790 7.1250 -0.0000 -0.0000 -1.5050 -11.9757 -1.1604
0.00 0.00 0.00 -15.3487 49.8058 -14.9684 0.0000 0.0000 0.0000 3.2847 -19.4830 -44.0848 11.7692 18.2914 65.2554 0.2371 -10.3848 -10.6109 0.2557 -3.2533 -8.9847 0.0000 0.0000 0.0000 -0.2827 4.2064 -10.8505 -1.9531 -8.7677 25.0713 0.9939 -17.7887 -11.0632 -0.0010 -0.2035 0.5590 1.5131 2.7290 17.8398 1.2831 4.1271 8.0272 -0.2696 2.1826 -1.3786 -16.3193 -20.1911 5.4621 23.3729 -28.7542 -0.0974 7.4720 -14.5465 4.9472 -0.0000 -0.0000 0.0000 -56.5841 15.3216 -2.8927 42.0461 -49.2365 -19.9754 -0.0000 0.0000 -24.2807 35.5256 21.8490 14.8803 -7.1250 0.0000 -0.0000 7.4341 56.0537 2.0237 -0.0000 -0.0000 0.0000 47.1184 8.8029 39.6378 -9.7941 16.4168 -1.4162 0.0000 0.0000 6.5201 3.8525 34.3236 2.1745 7.1250 -0.0000 -0.0000 19.8290 2.6637 22.0698
0.00 0.00 0.00 -27.5822 61.0802 -19.8640 0.0000 0.0000 0.0000 -15.4677 -10.9157 -35.8202 7.8945 16.0411 52.1819 1.6245 -2.6067 -23.4053 1.1908 6.9246 19.4921 0.0000 0.0000 0.0000 18.3952 -13.1407 -26.2604 -7.3757 -15.6403 50.2814 -0.5521 1.4377 -13.6142 -1.6656 8.1317 -23.1147 -5.7548 3.7224 14.0491 -2.2605 4.3294 6.0810 0.1996 2.1876 -1.6588 -15.7595 -20.8566 0.7539 28.3024 -32.1581 9.1592 7.4046 -15.1417 10.3824 0.0000 -0.0000 0.0000 -70.4213 24.6406 -3.9709 30.0164 -40.9075 -11.4204 -0.0000 0.0000 -0.1202 8.0507 14.9711 2.0926 -7.1250 0.0000 -0.0000 -17.9073 44.3237 0.3093 0.0000 -0.0000 0.0000 43.9039 4.3403 14.8801 -7.4220 12.6116 -0.8213 0.0000 0.0000 24.5946 34.5664 20.7075 13.6919 7.1250 -0.0000 -0.0000 35.9710 -6.9620 40.8331
